Coordinates
version=1
nRows=49
nColumns=12
inDegrees=yes

Units are S.I. units (second, meters, Newtons, ...)
Angles are in degrees

endheader
time	SC_y	SC_z	SC_x	AC_y	AC_z	AC_x	GH_y	GH_z	GH_yy	EL_x	PS_y
       0.0              -56.96          37.52          84.59          49.17         -16.72         -19.47          37.37          3.168          2.587          96.75          8.941
   0.03567              -56.96          37.51          84.58          49.18         -16.72         -19.47          37.35          3.174           2.57          96.74          8.957
   0.07135              -56.96          37.51          84.57          49.18         -16.72         -19.47          37.34           3.18          2.551          96.74          8.973
     0.107              -56.96          37.51          84.56          49.18         -16.72         -19.47          37.33          3.187          2.531          96.73           8.99
    0.1427              -56.95           37.5          84.54          49.18         -16.71         -19.46          37.32          3.194           2.51          96.72          9.009
    0.1784              -56.95           37.5          84.53          49.19         -16.71         -19.46          37.31          3.202          2.488          96.71          9.029
     0.214              -56.94          37.49          84.51          49.19         -16.71         -19.46          37.29           3.21          2.464          96.71           9.05
    0.2497              -56.94          37.49           84.5          49.19         -16.71         -19.45          37.28          3.219          2.438           96.7          9.072
    0.2854              -56.94          37.48          84.48          49.19         -16.71         -19.45          37.26          3.228           2.41          96.69          9.097
    0.3211              -56.93          37.48          84.46           49.2          -16.7         -19.45          37.25          3.238          2.381          96.68          9.122
    0.3567              -56.93          37.47          84.44           49.2          -16.7         -19.44          37.23          3.249          2.349          96.67           9.15
    0.3924              -56.92          37.46          84.41          49.21          -16.7         -19.44          37.21          3.261          2.315          96.66           9.18
    0.4281              -56.92          37.45          84.39          49.21          -16.7         -19.43          37.19          3.273          2.278          96.64          9.212
    0.4638              -56.91          37.45          84.36          49.22         -16.69         -19.43          37.16          3.287          2.239          96.63          9.247
    0.4994               -56.9          37.44          84.34          49.22         -16.69         -19.42          37.14          3.301          2.196          96.62          9.285
    0.5351               -56.9          37.43          84.31          49.23         -16.69         -19.41          37.11          3.317          2.149           96.6          9.326
    0.5708              -56.89          37.42          84.27          49.23         -16.68         -19.41          37.08          3.334          2.098          96.58           9.37
    0.6064              -56.88          37.41          84.24          49.24         -16.68          -19.4          37.05          3.353          2.043          96.56          9.419
    0.6421              -56.87          37.39           84.2          49.25         -16.67         -19.39          37.01          3.374          1.983          96.54          9.472
    0.6778              -56.86          37.38          84.15          49.25         -16.67         -19.38          36.98          3.396          1.917          96.52           9.53
    0.7135              -56.85          37.37          84.11          49.26         -16.66         -19.37          36.93          3.421          1.845           96.5          9.593
    0.7491              -56.84          37.35          84.05          49.27         -16.66         -19.36          36.89          3.448          1.765          96.47          9.663
    0.7848              -56.82          37.33           84.0          49.28         -16.65         -19.35          36.84          3.478          1.677          96.44           9.74
    0.8205              -56.81          37.31          83.93          49.29         -16.64         -19.33          36.78          3.511          1.579          96.41          9.826
    0.8562              -56.79          37.29          83.86          49.31         -16.64         -19.32          36.72          3.548          1.471          96.37          9.921
    0.8918              -56.77          37.26          83.78          49.32         -16.63          -19.3          36.64          3.589           1.35          96.33          10.03
    0.9275              -56.75          37.24          83.69          49.34         -16.62         -19.28          36.57          3.636          1.214          96.28          10.15
    0.9632              -56.72          37.21          83.59          49.35         -16.61         -19.26          36.48          3.687          1.062          96.23          10.28
    0.9989               -56.7          37.17          83.48          49.37         -16.59         -19.24          36.38          3.746         0.8897          96.17          10.43
     1.035              -56.67          37.13          83.35           49.4         -16.58         -19.21          36.26          3.813         0.6941          96.11           10.6
      1.07              -56.63          37.08          83.21          49.42         -16.56         -19.18          36.13          3.889         0.4709          96.03           10.8
     1.106              -56.59          37.03          83.04          49.45         -16.54         -19.15          35.98          3.976         0.2147          95.94          11.02
     1.142              -56.55          36.97          82.85          49.49         -16.52         -19.11          35.81          4.077       -0.08115          95.84          11.28
     1.177              -56.49           36.9          82.62          49.53          -16.5         -19.06          35.61          4.194        -0.4249          95.73          11.59
     1.213              -56.43          36.82          82.36          49.58         -16.47          -19.0          35.38          4.331         -0.827          95.59          11.94
     1.249              -56.35          36.72          82.05          49.63         -16.43         -18.94           35.1          4.493         -1.301          95.43          12.36
     1.284              -56.27          36.61          81.68           49.7         -16.39         -18.86          34.77          4.684         -1.865          95.24          12.85
      1.32              -56.16          36.47          81.24          49.78         -16.34         -18.77          34.38          4.915          -2.54          95.01          13.44
     1.356              -56.03           36.3           80.7          49.88         -16.28         -18.65           33.9          5.193         -3.357          94.74          14.16
     1.391              -55.88           36.1          80.05          49.99          -16.2         -18.52          33.32          5.533         -4.355           94.4          15.04
     1.427              -55.68          35.84          79.24          50.14         -16.11         -18.35          32.61          5.953         -5.587          93.98          16.12
     1.463              -55.44          35.53          78.23          50.32          -16.0         -18.14          31.71          6.476         -7.123          93.46          17.47
     1.498              -55.14          35.13          76.97          50.55         -15.86         -17.87          30.59          7.135         -9.058           92.8          19.17
     1.534              -54.75          34.63          75.36          50.84         -15.67         -17.53          29.15          7.973         -11.52          91.97          21.33
      1.57              -54.26          33.99          73.29          51.21         -15.44          -17.1          27.32          9.046         -14.67           90.9          24.09
     1.605              -53.63          33.16          70.65          51.69         -15.14         -16.54          24.97          10.42         -18.71          89.54          27.64
     1.641              -52.82           32.1          67.27          52.29         -14.76         -15.83          21.96          12.18         -23.87          87.79          32.17
     1.677               -51.8          30.78          63.02          53.06         -14.28         -14.94          18.18          14.39         -30.36          85.59          37.87
     1.712              -50.56          29.16          57.84          53.99         -13.69         -13.85          13.58          17.09         -38.27          82.91          44.81
